<?xml version="1.0" standalone="no"?>
<!DOCTYPE svg PUBLIC "-//W3C//DTD SVG 20010904//EN"
 "http://www.w3.org/TR/2001/REC-SVG-20010904/DTD/svg10.dtd">
<svg version="1.0" xmlns="http://www.w3.org/2000/svg"
 width="1024.000000pt" height="1024.000000pt" viewBox="0 0 1024.000000 1024.000000"
 preserveAspectRatio="xMidYMid meet">

<g transform="translate(0.000000,1024.000000) scale(0.100000,-0.100000)"
fill="#000000" stroke="none">
<path d="M5357 7835 c-279 -40 -542 -133 -767 -273 -267 -165 -500 -399 -659
-662 -18 -30 -35 -56 -36 -58 -2 -2 -21 8 -43 23 -111 73 -298 97 -434 55
-117 -36 -217 -114 -289 -224 -77 -118 -103 -287 -65 -420 l17 -57 -51 -56
c-180 -197 -181 -508 -3 -703 l51 -56 -14 -54 c-8 -30 -14 -94 -14 -142 l0
-88 154 0 154 0 -10 43 c-15 69 6 142 61 200 23 25 71 57 85 57 3 0 7 -57 8
-126 3 -122 4 -128 28 -145 23 -17 59 -19 393 -25 229 -5 367 -4 367 2 0 6 -7
61 -16 124 -12 79 -17 192 -18 359 l-1 244 50 17 c28 9 60 20 73 24 l22 7 0
-156 c0 -191 13 -282 52 -358 60 -120 176 -214 298 -241 105 -24 106 -24 113
33 15 123 123 233 244 248 l50 5 7 -34 c14 -76 109 -132 185 -109 45 13 99 69
108 112 5 25 10 29 40 29 47 0 136 -44 180 -88 45 -46 83 -126 83 -174 0 -43
4 -44 91 -28 173 32 321 181 358 358 6 29 11 132 11 229 0 163 1 175 18 168 9
-3 43 -14 76 -23 l59 -16 -6 -281 c-4 -181 -12 -310 -21 -365 -9 -47 -16 -86
-16 -87 0 -2 161 -3 358 -3 l358 0 40 43 c88 92 137 172 170 277 20 65 28 249
15 355 -29 236 -212 442 -513 580 -87 40 -88 40 -88 77 l0 36 263 4 c247 3
265 5 313 26 128 58 202 201 174 336 -17 81 -75 163 -223 310 -369 366 -769
580 -1243 662 -126 22 -471 27 -597 9z m458 -295 c345 -40 697 -190 980 -418
86 -70 325 -306 325 -322 0 -6 -99 -10 -258 -10 l-259 0 -61 -30 c-117 -59
-163 -139 -170 -297 -3 -57 -5 -103 -6 -103 -1 0 -44 11 -97 24 -588 149
-1467 137 -2038 -29 -65 -19 -139 -44 -165 -55 -80 -34 -80 -34 -31 114 79
242 199 438 390 634 260 269 608 443 985 491 94 12 301 12 405 1z m-2315
-1038 c0 -84 4 -124 14 -137 12 -16 32 -20 142 -25 140 -7 181 -19 227 -66 40
-39 57 -76 64 -135 4 -31 10 -48 17 -45 292 129 631 207 1035 237 203 15 622
7 811 -16 512 -60 907 -203 1077 -388 69 -76 85 -114 89 -216 l5 -86 -24 50
c-117 242 -564 424 -1205 491 -191 20 -645 23 -812 5 -524 -56 -851 -144
-1077 -290 l-63 -41 0 140 c0 76 -4 150 -10 164 -12 33 -61 46 -170 46 -112 0
-150 12 -204 64 -99 97 -94 248 11 335 67 55 73 48 73 -87z m0 -536 l0 -73
-60 -7 c-33 -4 -66 -14 -75 -22 -22 -22 -19 -80 5 -104 19 -19 33 -20 273 -20
143 0 268 -5 289 -10 175 -49 226 -274 89 -391 -48 -42 -98 -59 -170 -59 l-51
0 0 78 0 77 58 3 c43 2 61 8 75 23 23 28 22 60 -4 93 l-20 26 -244 0 c-302 0
-331 5 -401 75 -80 80 -94 176 -39 270 42 73 119 113 218 114 l57 1 0 -74z
m2036 64 c149 -12 286 -31 432 -62 l102 -21 0 -197 c0 -217 -10 -275 -60 -343
-29 -39 -97 -96 -116 -97 -6 0 -28 28 -51 63 l-40 63 36 20 c61 33 73 66 72
206 -1 104 -4 126 -22 155 -27 44 -73 67 -131 66 -101 -1 -137 -61 -138 -221
l0 -104 -32 9 c-18 4 -141 8 -273 8 -132 0 -255 -4 -272 -8 l-33 -9 0 90 c0
122 -7 149 -50 192 -62 62 -144 60 -209 -4 l-36 -36 -3 -124 c-5 -159 9 -188
106 -242 1 -1 -13 -24 -32 -52 -19 -28 -36 -57 -39 -64 -6 -19 -70 17 -114 65
-71 79 -77 107 -81 341 -2 114 0 212 5 217 20 20 389 81 558 92 118 8 301 6
421 -3z"/>
</g>
</svg>
